<?xml version="1.0" encoding="UTF-8"?>
<!DOCTYPE svg PUBLIC "-//W3C//DTD SVG 1.1//EN" "http://www.w3.org/Graphics/SVG/1.1/DTD/svg11.dtd">
<svg version="1.1" xmlns="http://www.w3.org/2000/svg" xmlns:xlink="http://www.w3.org/1999/xlink" x="0" y="0" width="480" height="170" viewBox="0, 0, 480, 170">
  <g id="Layer_1">
    <path d="M42.902,32.2 L40.422,32.2 L40.422,119 L42.902,119 L42.902,74.236 L90.394,120.488 L92.378,119 L46.002,74.236 L88.162,32.324 L86.178,30.712 L42.902,74.236 z" fill="#CE0814"/>
    <path d="M131.066,118.256 C115.566,118.256 102.794,105.732 102.794,89.984 L102.794,89.364 L159.338,89.364 C158.966,72.376 146.07,59.48 129.826,59.48 C113.334,59.48 100.314,72.748 100.314,89.984 C100.314,107.22 114.574,120.488 131.066,120.488 C140.614,120.488 149.294,116.52 155.618,107.592 L153.882,106.104 C148.426,113.916 140.614,118.256 131.066,118.256 z M102.918,87.132 C104.282,72.872 114.946,61.712 129.826,61.712 C144.582,61.712 155.122,72.872 156.734,87.132 z" fill="#CE0814"/>
    <path d="M207.202,61.34 C204.102,60.1 201.126,59.48 198.274,59.48 C190.214,59.48 184.138,63.944 180.046,72.996 L180.046,60.968 L177.566,60.968 L177.566,119 L180.046,119 L180.046,84.652 C180.046,72.996 187.238,61.712 197.53,61.712 C200.63,61.712 203.606,62.456 206.458,63.82 z" fill="#CE0814"/>
    <path d="M216.378,89.984 C216.378,107.468 230.638,120.488 247.13,120.488 C259.406,120.488 270.69,113.296 275.402,101.64 L275.402,119 L277.882,119 L277.882,60.968 L275.402,60.968 L275.402,78.328 C270.814,66.796 259.406,59.48 247.13,59.48 C230.638,59.48 216.378,72.5 216.378,89.984 z M275.402,89.984 C275.402,105.98 262.63,118.256 247.13,118.256 C231.63,118.256 218.858,105.98 218.858,89.984 C218.858,73.988 231.63,61.712 247.13,61.712 C262.63,61.712 275.402,73.988 275.402,89.984 z" fill="#CE0814"/>
    <path d="M311.982,118.256 C305.534,118.256 300.078,114.412 296.482,108.46 L294.746,109.824 C298.59,116.644 304.542,120.488 311.982,120.488 C323.39,120.488 329.714,113.048 329.714,103.996 C329.714,96.556 325.622,90.728 314.71,86.264 C304.79,82.172 300.202,78.576 300.202,72.004 C300.202,65.432 305.534,61.712 311.362,61.712 C315.826,61.712 319.422,63.448 322.15,66.92 L323.886,65.556 C321.282,61.712 316.694,59.48 311.362,59.48 C303.798,59.48 297.722,64.44 297.722,72.376 C297.722,79.32 302.93,83.784 311.486,87.38 C322.77,91.968 327.234,96.308 327.234,104.244 C327.234,111.684 321.53,118.256 311.982,118.256 z" fill="#CE0814"/>
    <path d="M341.866,112.924 C340.998,117.14 343.726,120.488 347.942,120.488 C352.158,120.488 356.126,117.14 356.994,112.924 C357.862,108.708 355.134,105.36 350.918,105.36 C346.702,105.36 342.734,108.708 341.866,112.924 z" fill="#BBBBBB"/>
    <path d="M346.95,146.156 C349.802,151.24 355.134,153.968 361.334,153.968 C374.478,153.968 382.786,145.04 385.638,130.284 L399.03,60.968 L388.366,60.968 L374.974,130.16 C373.238,139.212 369.642,144.544 363.07,144.544 C359.722,144.544 357.118,142.808 356.002,139.832 z M390.598,38.524 C389.73,42.616 392.458,45.964 396.55,45.964 C400.642,45.964 404.61,42.616 405.478,38.524 C406.222,34.432 403.494,31.084 399.402,31.084 C395.31,31.084 391.342,34.432 390.598,38.524 z" fill="#BBBBBB"/>
    <path d="M422.466,111.064 C416.886,111.064 414.158,107.22 412.794,101.764 L403.618,107.592 C405.85,115.776 412.918,120.488 420.606,120.488 C433.75,120.488 441.934,112.18 443.918,102.012 C445.406,94.448 442.306,88 431.766,83.288 C425.442,80.436 422.962,77.956 423.706,74.112 C424.202,71.26 427.302,68.904 430.774,68.904 C433.998,68.904 436.478,70.64 437.346,73.492 L445.654,68.036 C443.67,62.704 438.214,59.48 432.386,59.48 C423.086,59.48 414.654,66.052 412.918,74.856 C411.43,82.172 416.018,87.628 424.202,91.224 C431.642,94.448 434.122,97.548 433.13,102.756 C432.262,107.344 428.17,111.064 422.466,111.064 z" fill="#BBBBBB"/>
  </g>
</svg>
